<?xml version="1.0" standalone="no"?>
<!DOCTYPE svg PUBLIC "-//W3C//DTD SVG 20010904//EN"
 "http://www.w3.org/TR/2001/REC-SVG-20010904/DTD/svg10.dtd">
<svg version="1.0" xmlns="http://www.w3.org/2000/svg"
 width="157.000000pt" height="105.000000pt" viewBox="0 0 157.000000 105.000000"
 preserveAspectRatio="xMidYMid meet">

<g transform="translate(0.000000,105.000000) scale(0.100000,-0.100000)"
fill="#000000" stroke="none">
<path d="M845 960 c-3 -5 1 -10 9 -10 9 0 16 5 16 10 0 6 -4 10 -9 10 -6 0
-13 -4 -16 -10z"/>
<path d="M936 872 c-2 -4 4 -8 14 -8 10 0 16 4 14 8 -3 4 -9 8 -14 8 -5 0 -11
-4 -14 -8z"/>
<path d="M947 788 c-3 -12 -4 -25 -1 -30 10 -16 19 -7 21 22 3 35 -12 40 -20
8z"/>
<path d="M504 718 l-19 -23 23 19 c21 18 27 26 19 26 -2 0 -12 -10 -23 -22z"/>
<path d="M1031 737 c2 -1 13 -9 24 -17 19 -14 19 -14 6 3 -7 9 -18 17 -24 17
-6 0 -8 -1 -6 -3z"/>
<path d="M810 680 c0 -6 7 -10 15 -10 8 0 15 2 15 4 0 2 -7 6 -15 10 -8 3 -15
1 -15 -4z"/>
<path d="M492 665 c-17 -19 -1 -19 24 0 14 11 15 14 4 14 -8 0 -21 -6 -28 -14z"/>
<path d="M1045 670 c3 -5 10 -10 16 -10 5 0 9 5 9 10 0 6 -7 10 -16 10 -8 0
-12 -4 -9 -10z"/>
<path d="M684 633 c6 -35 -9 -44 -33 -20 -21 19 -4 -48 27 -108 14 -27 26 -57
26 -65 1 -9 16 -19 37 -24 46 -11 92 9 94 41 1 13 10 33 21 45 10 12 14 19 8
15 -6 -3 -25 3 -42 14 -18 10 -42 19 -55 19 -38 0 -67 12 -67 26 0 8 8 14 18
14 16 1 16 1 0 14 -10 7 -22 24 -28 37 -10 22 -10 21 -6 -8z m46 -103 c0 -5
-5 -10 -11 -10 -5 0 -7 5 -4 10 3 6 8 10 11 10 2 0 4 -4 4 -10z m47 -13 c-6
-20 -27 -19 -27 2 0 14 5 19 15 14 9 -3 14 -10 12 -16z"/>
<path d="M1029 643 c6 -12 11 -36 11 -53 0 -17 -5 -41 -11 -53 -10 -21 -10
-21 5 -3 9 11 16 36 16 56 0 20 -7 45 -16 56 -15 18 -15 18 -5 -3z"/>
<path d="M739 617 c5 -12 18 -23 30 -25 28 -4 18 21 -14 36 -22 10 -23 9 -16
-11z"/>
<path d="M488 613 c7 -3 16 -2 19 1 4 3 -2 6 -13 5 -11 0 -14 -3 -6 -6z"/>
<path d="M490 555 c0 -8 4 -15 10 -15 5 0 7 7 4 15 -4 8 -8 15 -10 15 -2 0 -4
-7 -4 -15z"/>
<path d="M481 518 c-2 -26 10 -48 33 -60 19 -10 20 -10 7 5 -11 14 -11 20 -1
32 9 10 9 15 1 15 -6 0 -11 -4 -11 -10 0 -20 -19 -10 -23 13 -2 13 -5 15 -6 5z"/>
<path d="M1048 503 c15 -6 16 -39 2 -46 -6 -3 -5 -4 2 -3 7 1 14 15 16 29 3
21 -1 27 -15 26 -10 0 -13 -3 -5 -6z"/>
</g>
</svg>
