<?xml version="1.0" standalone="no"?>
<!DOCTYPE svg PUBLIC "-//W3C//DTD SVG 20010904//EN"
 "http://www.w3.org/TR/2001/REC-SVG-20010904/DTD/svg10.dtd">
<svg version="1.0" xmlns="http://www.w3.org/2000/svg"
 width="150.000000pt" height="71.000000pt" viewBox="0 0 150.000000 71.000000"
 preserveAspectRatio="xMidYMid meet">
<metadata>
Created by potrace 1.16, written by Peter Selinger 2001-2019
</metadata>
<g transform="translate(0.000000,71.000000) scale(0.100000,-0.100000)"
fill="#000000" stroke="none">
<path d="M675 378 c6 -30 -3 -36 -24 -15 -22 21 -3 -70 29 -133 5 -10 22 -15
55 -15 47 0 49 1 72 44 23 44 31 70 13 41 -8 -13 -13 -13 -39 3 -16 9 -38 17
-49 17 -27 0 -52 10 -52 21 0 5 16 9 35 9 19 0 35 4 35 9 0 13 -34 24 -38 12
-6 -18 -22 -12 -33 12 -9 20 -9 20 -4 -5z"/>
</g>
</svg>
